<svg fill="#ef8684" height="187" viewBox="0 0 1208 187" width="1208" xmlns="http://www.w3.org/2000/svg"><g transform="translate(-1)"><path d="m288.52 25c.1 13.8-11 25.1-24.9 25.3-13.8.1-25.1-11-25.3-24.9s11-25.100002 24.9-25.3000024h.2c13.7-.1999996 24.9 10.8000024 25.1 24.5000024z"/><path d="m1124.62 117.7c-1.7.9-2.4 3-1.5 4.7 0 0 0 .1.1.1 11.6 19.9 33 33.2 58.5 20.1 16-8.2 23.2-21.5 24.5-36.8 0-.4.4-.8.8-.8s.8.3.9.8c2.7 29.3-6.2 57.6-35.4 72.6-33.6 17.3-67 5.1-83.9-27.9s.2-69.7 33.9-87c33-16.9 60-10 68 17.2.5 1.6-.3 3.3-1.8 4.1zm-1.79-4.3 27.6-14.1c1.6-.8 2.3-2.6 1.7-4.2-5-14.6-17.8-36.2-32.3-28.1-12.6 7.1-8 28.9-1.9 44.6.7 1.8 2.7 2.7 4.6 2 .09-.1.19-.1.3-.2z"/><path d="m536.93 158.4c0-11.6 8.6-16.9 17.4-16.9 7.9 0 16.4 4.6 17.7 13.9.1.9-.4 1.8-1.2 2.1-4.1 1.8-6.5 6.3-6.5 11.3 0 7.4 5.8 13.9 24.8 13.9 21.8 0 31.1-7.2 31.1-16 0-26-82.6-22.5-82.6-68.4 0-28.5 30.8-38.7 60.1-38.7 21.1 0 45.5 5.3 45.5 23.9 0 10.2-7.4 15.3-15.8 15.3-7 0-14.6-4.3-15.7-12.8-.1-.9.4-1.7 1.2-2.1 3.5-1.7 5.7-5.3 5.6-9.3 0-8.3-10.2-13.2-23.7-13.2-17.2 0-24.1 8.1-24.1 16 0 26.7 81 19 81 65.4 0 24.6-22.5 41.8-63.8 41.8-22.9 0-51-5.3-51-26.2z"/><path d="m731.62 182.3c0-.4.4-.8.8-.8 11.5-.3 11.7-6.7 11.7-24.8v-56.9c0-9.5-1.2-22-14.6-22-5.2 0-12.5 2.7-19.2 8-.8.7-1.3 1.6-1.3 2.7v68.2c0 14.3.2 24.4 12 24.8.4 0 .8.4.8.8 0 .5-.4.8-.8.8h-74.3c-.4 0-.8-.4-.8-.8s.4-.8.8-.8c17.3-.1 19.4-5 19.4-29.5v-115.5c0-15.3-3.2-21.6-22.2-17.4-.4.1-.9-.2-1-.6-.1-.5.1-.9.6-1.1l63-17.000001c1.1-.2999997 2.2.3 2.5 1.400001.1.2.1.4.1.6v82.1c23-18.8 36.9-24.9 51-24.9 18.8 0 26.9 10.4 26.9 34.1v58.3c0 24.4 2 29.3 19.4 29.5.4 0 .8.4.8.8s-.4.8-.8.8h-74c-.39 0-.8-.4-.8-.8z"/><path d="m541.03 184.3c0 .4-.3.8-.8.8-11.5.7-20.8 1.6-32.4 1.6-29.2 0-33-4.6-41.3-32-4.5-14.1-8.3-45.6-28.2-37.6-1.3.5-2.2 1.7-2.2 3.1v36.5c0 14.3.2 24.4 12 24.8.5 0 .8.4.8.8 0 .5-.4.8-.8.8h-284.3c-.4 0-.8-.4-.8-.8s.4-.8.8-.8c11.5-.3 11.7-6.7 11.7-24.8v-56.9c0-8.8 0-22-13-22-5 0-11.5 3.1-18.5 8.2-.9.7-1.4 1.8-1.2 3v67.8c0 18.1.2 24.5 11.7 24.8.4 0 .8.4.8.8s-.4.8-.8.8h-66.2999c-.4 0-.8-.4-.8-.8s.4-.8.8-.8c11.5-.3 11.7-6.7 11.7-24.8v-57c0-8.8 0-22-13-22-5 0-11.3 2.6-18.4 8-.9.6-1.4 1.7-1.4 2.8v68.1c0 14.3.2 24.4 12 24.8.4 0 .8.4.8.8 0 .5-.4.8-.8.8h-74.20998c-.5 0-.8-.4-.8-.8s.4-.8.8-.8c17.29998-.1 19.39998-5 19.39998-29.5v-55.7c-.09-15.3-3.2-21.6-22.29998-17.3-.400003.1-.900003-.1-1.0000028-.6v-.1c-.1-.4.0999998-.9.5999998-1l62.999983-17c1.1-.3 2.2.4 2.4 1.4 0 .2.1.4.1.6v22.1c21.3-17.6 35.6999-24.8 50.0999-24.8 16 0 23.2 7.9 25 25.1 21.1-17.2 36.2-25.1 50.6-25.1 18.6 0 25.5 10.4 25.5 34.1v27.3 45.4c0 8.2 6.6 14.8 14.8 14.8 6.9 0 12.9-4.7 14.4-11.5.6-2.6.4-5.3.4-8 0-3.3 0-6.6 0-9.9v-55.5c0-15.3-3.2-21.6-22.2-17.3-.5.1-.9-.2-1-.6s.2-.9.6-1l64.4-17c.5-.1.9.1 1.1.6v.2 90.8 14.5c-.2 8.2 6.3 15 14.4 15.2s15-6.3 15.2-14.4c0-.3 0-.5 0-.8v-45.3-84.7c0-15.3-3.1-21.6-22.2-17.4-.4.1-.9-.2-1-.6-.1-.5.1-.9.6-1.1l64.5-17.299999c.5-.09999971.9.2 1.1.6v.2 151.099999c0 5-.2 10.1 0 15.2.4 8.2 7.4 14.5 15.6 14 7.8-.4 14-6.9 14.1-14.7v-45.3-84.7c0-15.3-3.2-21.6-22.2-17.4-.4.1-.9-.2-1-.6-.1-.5.1-.9.6-1.1l64.5-17.299999c.5-.09999971.9.2 1.1.6v.2 110.099999l13.7-12.2c11.6-9.4 33.2-33.9 13.1-34.8-.5 0-.8-.4-.8-.8 0-.5.4-.8.8-.8h52.4c.5 0 .8.4.8.8v.1c0 .4-.3.8-.7.8-21.6 3.2-44.6 21.3-62.7 38.5l-8.9 8.3c9.8-2.3 16.1-4.4 25.3-4.4 28.5 0 39.3 26.9 46.5 44.7 9.7 23.9 13.5 32.6 24.6 32.4.4-.1.81.2.81.7z"/><path d="m1098.22 183.4c-11.1.2-14.9-8.5-24.6-32.4-7.2-17.8-18-44.7-46.5-44.7-9.2 0-15.5 2.1-25.3 4.4l8.9-8.3c18.1-17.2 41.2-35.3 62.7-38.5.4-.1.7-.4.7-.8v-.1c0-.5-.4-.8-.8-.8h-52.3c-.5.1-.8.5-.7.9 0 .4.3.7.7.7 20.1.9-1.5 25.3-13.1 34.8l-13.7 12.2v-109.9c0-.5-.3-.9-.8-.9-.1 0-.2 0-.3 0l-64.4 17.4c-.5.1-.7.6-.6 1 .1.5.6.7 1 .6 19-4.3 22.2 2 22.2 17.3v117.4c-1.4 5.3-4.8 11.8-10.2 13.9-4.6 1.8-9.7-.8-11.6-5.2-1.2-2.7-1.2-6-1.3-8.9-.1-2.2 0-4.5 0-6.7v-84.1c-2.1 2.2-4.6 4.1-7.2 5.6-2.2 1.3-4.6 2.1-7.2 2.5-2.5.3-5.1 0-7.5-.6-5.5-1.3-10.5-3.9-15.7-6-4.8-2-9.8-3.4-14.9-4.2-20.2-2.3-40.3 5.1-54.2 19.9-6.5 7-11.4 15.2-14.6 24.2-3.4 9.5-4.8 19.6-4.2 29.6.6 10.5 3.3 20.9 8.8 29.9 4.6 7.7 11.3 13.9 19.5 17.7 8.6 3.7 18.3 4.4 27.3 1.9 9.7-2.5 18.1-8.6 23.5-17.1 1.4-2.2 2.6-4.6 3.6-7 .4 2.6 1 5.3 1.8 7.8.8 2.4 1.9 4.7 3.2 6.9 2.1 3.6 5.2 6.5 8.9 8.5 4.6 2.3 9.8 2.5 14.9 2 5.4-.5 10.6-1.8 15.6-3.8 2.5-1.1 4.9-2.3 7.2-3.7 2.1-1.3 4-2.7 5.9-4.2 3.2-2.8 6.1-5.9 8.7-9.3v19.7h54.9c.5 0 .8-.4.8-.8 0-.5-.4-.8-.8-.8-11.7-.4-12-10.5-12-24.8v-36.3c0-1.4.9-2.7 2.2-3.3 19.8-8 23.7 23.6 28.2 37.6 8.3 27.4 12.1 32 41.3 32 11.6 0 20.9-.9 32.4-1.6.4 0 .8-.4.8-.8-.49-.4-.8-.8-1.2-.8zm-213.1-32.6c0 2.4-.5 4.8-1.5 7-2.9 7.5-9.5 15.3-16.2 15.3-19.7 0-19.7-36-19.7-50.6 0-42.9 6.7-61 23-61 2.8-.1 5.7.4 8.2 1.6 2.8 1.5 4.4 4.2 5.2 8.3s1 9.4 1 16.3z"/></g></svg>